<svg width="24" height="24" viewBox="0 0 24 24" fill="none" xmlns="http://www.w3.org/2000/svg">
<path opacity="0.4" d="M16.19 2H7.81C4.17 2 2 4.17 2 7.81V16.18C2 19.83 4.17 22 7.81 22H16.18C19.82 22 21.99 19.83 21.99 16.19V7.81C22 4.17 19.83 2 16.19 2Z" fill="#D1CFC0"/>
<path d="M9.59995 15.78C9.40995 15.78 9.21995 15.71 9.06995 15.56L6.57995 13.07C5.98995 12.48 5.98995 11.53 6.57995 10.94L9.06995 8.44998C9.35995 8.15998 9.83995 8.15998 10.13 8.44998C10.42 8.73998 10.42 9.21998 10.13 9.50998L7.63995 12L10.13 14.5C10.42 14.79 10.42 15.27 10.13 15.56C9.97995 15.7 9.78995 15.78 9.59995 15.78Z" fill="#D1CFC0"/>
<path d="M14.4 15.78C14.21 15.78 14.02 15.71 13.87 15.56C13.58 15.27 13.58 14.79 13.87 14.5L16.36 12L13.87 9.49997C13.58 9.20997 13.58 8.72997 13.87 8.43997C14.16 8.14997 14.64 8.14997 14.93 8.43997L17.42 10.93C18.01 11.52 18.01 12.47 17.42 13.06L14.93 15.55C14.79 15.7 14.59 15.78 14.4 15.78Z" fill="#D1CFC0"/>
</svg>
